<svg width="65" height="25" viewBox="0 0 65 25" fill="none" xmlns="http://www.w3.org/2000/svg">
<rect x="0.661621" width="63.8623" height="25" rx="3" fill="#212529" fill-opacity="0.3"/>
<path d="M13.7996 13.184C13.7996 12.6293 13.9196 12.136 14.1596 11.704C14.3996 11.2667 14.733 10.928 15.1596 10.688C15.5916 10.4427 16.0796 10.32 16.6236 10.32C17.2903 10.32 17.861 10.496 18.3356 10.848C18.8103 11.2 19.1276 11.68 19.2876 12.288H17.7836C17.6716 12.0533 17.5116 11.8747 17.3036 11.752C17.101 11.6293 16.869 11.568 16.6076 11.568C16.1863 11.568 15.845 11.7147 15.5836 12.008C15.3223 12.3013 15.1916 12.6933 15.1916 13.184C15.1916 13.6747 15.3223 14.0667 15.5836 14.36C15.845 14.6533 16.1863 14.8 16.6076 14.8C16.869 14.8 17.101 14.7387 17.3036 14.616C17.5116 14.4933 17.6716 14.3147 17.7836 14.08H19.2876C19.1276 14.688 18.8103 15.168 18.3356 15.52C17.861 15.8667 17.2903 16.04 16.6236 16.04C16.0796 16.04 15.5916 15.92 15.1596 15.68C14.733 15.4347 14.3996 15.096 14.1596 14.664C13.9196 14.232 13.7996 13.7387 13.7996 13.184ZM22.9894 16L21.8214 13.88H21.4934V16H20.1254V10.384H22.4214C22.8641 10.384 23.2401 10.4613 23.5494 10.616C23.8641 10.7707 24.0987 10.984 24.2534 11.256C24.4081 11.5227 24.4854 11.8213 24.4854 12.152C24.4854 12.5253 24.3787 12.8587 24.1654 13.152C23.9574 13.4453 23.6481 13.6533 23.2374 13.776L24.5334 16H22.9894ZM21.4934 12.912H22.3414C22.5921 12.912 22.7787 12.8507 22.9014 12.728C23.0294 12.6053 23.0934 12.432 23.0934 12.208C23.0934 11.9947 23.0294 11.8267 22.9014 11.704C22.7787 11.5813 22.5921 11.52 22.3414 11.52H21.4934V12.912ZM26.7121 11.48V12.616H28.5441V13.672H26.7121V14.904H28.7841V16H25.3441V10.384H28.7841V11.48H26.7121ZM33.1683 15.008H31.0723L30.7363 16H29.3043L31.3363 10.384H32.9203L34.9523 16H33.5043L33.1683 15.008ZM32.8163 13.952L32.1203 11.896L31.4323 13.952H32.8163ZM39.6107 10.384V11.48H38.1227V16H36.7547V11.48H35.2667V10.384H39.6107ZM41.6653 10.384V16H40.2973V10.384H41.6653ZM47.9286 10.384L45.9366 16H44.2246L42.2326 10.384H43.6886L45.0806 14.624L46.4806 10.384H47.9286ZM49.8684 11.48V12.616H51.7004V13.672H49.8684V14.904H51.9404V16H48.5004V10.384H51.9404V11.48H49.8684Z" fill="#F8F9FA"/>
</svg>
