<svg width="14" height="10" viewBox="0 0 14 10" fill="none" xmlns="http://www.w3.org/2000/svg">
<path d="M5.808 0.659999V1.776H2.268V4.236H5.028V5.352H2.268V9H0.9V0.659999H5.808ZM8.44378 3.372C8.67578 3.052 8.99178 2.792 9.39178 2.592C9.79978 2.384 10.2518 2.28 10.7478 2.28C11.3318 2.28 11.8598 2.42 12.3318 2.7C12.8038 2.98 13.1758 3.38 13.4478 3.9C13.7198 4.412 13.8558 5 13.8558 5.664C13.8558 6.328 13.7198 6.924 13.4478 7.452C13.1758 7.972 12.7998 8.38 12.3198 8.676C11.8478 8.964 11.3238 9.108 10.7478 9.108C10.2358 9.108 9.77978 9.008 9.37978 8.808C8.98778 8.608 8.67578 8.352 8.44378 8.04V9H7.07578V0.12H8.44378V3.372ZM12.4638 5.664C12.4638 5.208 12.3678 4.816 12.1758 4.488C11.9918 4.152 11.7438 3.9 11.4318 3.732C11.1278 3.556 10.7998 3.468 10.4478 3.468C10.1038 3.468 9.77578 3.556 9.46378 3.732C9.15978 3.908 8.91178 4.164 8.71978 4.5C8.53578 4.836 8.44378 5.232 8.44378 5.688C8.44378 6.144 8.53578 6.544 8.71978 6.888C8.91178 7.224 9.15978 7.48 9.46378 7.656C9.77578 7.832 10.1038 7.92 10.4478 7.92C10.7998 7.92 11.1278 7.832 11.4318 7.656C11.7438 7.472 11.9918 7.208 12.1758 6.864C12.3678 6.52 12.4638 6.12 12.4638 5.664Z" fill="#495057" fill-opacity="0.5"/>
</svg>
