<svg width="13" height="9" viewBox="0 0 13 9" fill="none" xmlns="http://www.w3.org/2000/svg">
<path d="M2.268 7.896H5.088V9H0.9V0.659999H2.268V7.896ZM9.56803 2.28C10.088 2.28 10.552 2.388 10.96 2.604C11.376 2.82 11.7 3.14 11.932 3.564C12.164 3.988 12.28 4.5 12.28 5.1V9H10.924V5.304C10.924 4.712 10.776 4.26 10.48 3.948C10.184 3.628 9.78003 3.468 9.26803 3.468C8.75603 3.468 8.34803 3.628 8.04403 3.948C7.74803 4.26 7.60003 4.712 7.60003 5.304V9H6.23203V2.388H7.60003V3.144C7.82403 2.872 8.10803 2.66 8.45203 2.508C8.80403 2.356 9.17603 2.28 9.56803 2.28Z" fill="#495057" fill-opacity="0.5"/>
</svg>
