<svg width="123" height="31" viewBox="0 0 123 31" fill="none" xmlns="http://www.w3.org/2000/svg">
<path d="M115.278 13.0032H114.06L111.297 5.97503C111.135 5.6094 110.728 5.4469 110.363 5.56878C109.997 5.73128 109.835 6.13753 109.956 6.50315L112.516 13.0438H97.4439L100.003 6.50315C100.166 6.13753 99.9627 5.73128 99.5971 5.56878C99.2314 5.40628 98.8252 5.6094 98.6627 5.97503L95.9002 13.0032H94.6814C94.0721 13.0032 93.5439 13.4907 93.5439 14.1407V17.5938C93.5439 18.2032 94.0314 18.7313 94.6814 18.7313H94.7221L95.7783 27.9938C95.9408 29.4157 97.1596 30.5125 98.6221 30.5125H111.297C112.76 30.5125 113.978 29.4157 114.141 27.9938L115.197 18.7313H115.238C115.847 18.7313 116.375 18.2438 116.375 17.5938V14.1407C116.416 13.5313 115.928 13.0032 115.278 13.0032ZM95.0064 14.425H114.994V17.2688H95.0064V14.425ZM112.76 27.7907C112.678 28.5219 112.069 29.05 111.338 29.05H98.6627C97.9314 29.05 97.3221 28.5219 97.2408 27.7907L96.1846 18.6907H113.816L112.76 27.7907Z" fill="#212B36"/>
<path d="M100.734 25.6375C101.14 25.6375 101.465 25.3125 101.465 24.9062V21.7781C101.465 21.3719 101.14 21.0469 100.734 21.0469C100.328 21.0469 100.003 21.3719 100.003 21.7781V24.9062C100.003 25.3125 100.328 25.6375 100.734 25.6375Z" fill="#212B36"/>
<path d="M109.265 25.6375C109.672 25.6375 109.997 25.3125 109.997 24.9062V21.7781C109.997 21.3719 109.672 21.0469 109.265 21.0469C108.859 21.0469 108.534 21.3719 108.534 21.7781V24.9062C108.575 25.3125 108.9 25.6375 109.265 25.6375Z" fill="#212B36"/>
<path d="M59.0002 28C58.5716 28 58.1073 27.8537 57.7859 27.5246C56.9645 26.7934 56.1431 26.0987 55.4288 25.4771C53.3216 23.6489 51.5002 22.0767 50.2145 20.5045C48.7145 18.6764 48.0002 16.9213 48.0002 14.9835C48.0002 13.0822 48.6431 11.3272 49.8216 10.0475C51.0002 8.73121 52.6431 7.99995 54.4288 7.99995C55.7502 7.99995 57.0002 8.43871 58.0716 9.27966C58.3931 9.5356 58.7145 9.8281 59.0002 10.1572C59.2859 9.8281 59.6073 9.5356 59.9288 9.27966C61.0002 8.43871 62.2145 7.99995 63.5716 7.99995C65.3573 7.99995 66.9645 8.73121 68.1788 10.0475C69.3573 11.3272 70.0002 13.0822 70.0002 14.9835C70.0002 16.9213 69.2859 18.6764 67.7859 20.5045C66.5002 22.0767 64.6788 23.6489 62.5716 25.4771C61.8573 26.0987 61.0359 26.7934 60.2145 27.5246C59.8931 27.8171 59.4288 28 59.0002 28ZM54.4288 9.2431C53.0002 9.2431 51.6788 9.8281 50.7502 10.8884C49.7859 11.9488 49.2859 13.3747 49.2859 14.9469C49.2859 16.5557 49.8931 18.0548 51.1788 19.6636C52.3931 21.1627 54.1788 22.6983 56.2502 24.4899C56.9645 25.1115 57.7859 25.8062 58.6073 26.574C58.8216 26.7568 59.1788 26.7568 59.3931 26.574C60.2502 25.8427 61.0359 25.1115 61.7502 24.4899C63.8216 22.6983 65.6073 21.1627 66.8216 19.6636C68.1073 18.0548 68.7145 16.5557 68.7145 14.9469C68.7145 13.3747 68.1788 11.9488 67.2502 10.8884C66.2859 9.8281 65.0002 9.2431 63.5716 9.2431C62.5002 9.2431 61.5359 9.57216 60.7145 10.2669C60.3573 10.5228 60.0716 10.8519 59.7502 11.2175C59.5716 11.4369 59.2859 11.5831 59.0002 11.5831C58.7145 11.5831 58.4288 11.4369 58.2502 11.2175C57.9645 10.8519 57.6431 10.5228 57.2859 10.2669C56.4645 9.60873 55.5002 9.2431 54.4288 9.2431Z" fill="#212B36"/>
<path fill-rule="evenodd" clip-rule="evenodd" d="M58.2585 9.04497C58.5091 9.24452 58.7619 9.46733 59.0002 9.7136C59.2385 9.46733 59.4913 9.24452 59.7419 9.04497L59.7435 9.04366C60.8653 8.16318 62.1442 7.69995 63.5716 7.69995C65.4444 7.69995 67.1305 8.46871 68.3993 9.84407C69.6343 11.1851 70.3002 13.0154 70.3002 14.9835C70.3002 17.0063 69.5508 18.8263 68.0181 20.6944C66.7379 22.26 64.9398 23.8199 62.8903 25.5978L62.7686 25.7034C62.5209 25.9189 62.2618 26.142 61.995 26.3718C61.4876 26.8086 60.9524 27.2694 60.4152 27.7476C60.04 28.0884 59.5048 28.3 59.0002 28.3C58.5141 28.3 57.969 28.1362 57.579 27.7421C57.0438 27.2658 56.5108 26.8069 56.0054 26.3717C55.7386 26.1421 55.4796 25.919 55.2319 25.7035C55.1912 25.6682 55.1506 25.6329 55.1101 25.5978C53.0607 23.8199 51.2626 22.2601 49.9824 20.6946C48.4496 18.8264 47.7002 17.0064 47.7002 14.9835C47.7002 13.0161 48.3654 11.1867 49.5995 9.8458C50.8355 8.46633 52.5593 7.69995 54.4288 7.69995C55.8195 7.69995 57.1343 8.16257 58.2568 9.04367L58.2585 9.04497ZM49.8216 10.0475C48.6431 11.3272 48.0002 13.0822 48.0002 14.9835C48.0002 16.9213 48.7145 18.6764 50.2145 20.5045C51.4782 22.0499 53.2596 23.5952 55.3211 25.3836L55.4288 25.4771C55.6741 25.6906 55.932 25.9127 56.1983 26.1419C56.7073 26.5802 57.2466 27.0445 57.7859 27.5246C58.1073 27.8537 58.5716 28 59.0002 28C59.4288 28 59.8931 27.8171 60.2145 27.5246C60.7538 27.0445 61.2931 26.5801 61.8021 26.1419C62.0684 25.9127 62.3263 25.6906 62.5716 25.4771L62.6793 25.3837C64.7408 23.5952 66.5222 22.0499 67.7859 20.5045C69.2859 18.6764 70.0002 16.9213 70.0002 14.9835C70.0002 13.0822 69.3573 11.3272 68.1788 10.0475C66.9645 8.73121 65.3573 7.99995 63.5716 7.99995C62.2145 7.99995 61.0002 8.43871 59.9288 9.27966C59.6818 9.47633 59.4348 9.6946 59.204 9.93445C59.1344 10.0067 59.0664 10.081 59.0002 10.1572C58.934 10.081 58.866 10.0067 58.7964 9.93445C58.5656 9.6946 58.3186 9.47633 58.0716 9.27966C57.0002 8.43871 55.7502 7.99995 54.4288 7.99995C52.6431 7.99995 51.0002 8.73121 49.8216 10.0475ZM50.9721 11.0903C50.0651 12.0877 49.5859 13.4383 49.5859 14.9469C49.5859 16.4694 50.157 17.9042 51.4125 19.4755C52.5867 20.9249 54.3104 22.4156 56.3452 24.1754L56.4464 24.263C56.5954 24.3926 56.7502 24.5264 56.9084 24.6632C57.5028 25.177 58.1549 25.7407 58.8062 26.3492C58.9092 26.4329 59.0976 26.4317 59.1983 26.3458C59.6996 25.9181 60.1671 25.4988 60.6143 25.0977C60.9361 24.809 61.2474 24.5297 61.5533 24.2636L61.6552 24.1754C63.6901 22.4156 65.4137 20.9249 66.588 19.4754C67.8434 17.9042 68.4145 16.4694 68.4145 14.9469C68.4145 13.4442 67.9031 12.0905 67.0264 11.0882C66.1174 10.0898 64.9122 9.5431 63.5716 9.5431C62.5665 9.5431 61.672 9.84995 60.9082 10.4959L60.899 10.5037L60.8892 10.5107C60.5695 10.7398 60.3094 11.0357 59.9883 11.4011L59.979 11.4116C59.7476 11.6931 59.3807 11.8831 59.0002 11.8831C58.6176 11.8831 58.2487 11.6909 58.0175 11.4069L58.0138 11.4023C57.7408 11.0529 57.4394 10.7459 57.1112 10.5107L57.1046 10.506L57.0983 10.501C56.3264 9.88253 55.4274 9.5431 54.4288 9.5431C53.0839 9.5431 51.8457 10.0928 50.9759 11.0861L50.9721 11.0903ZM59.7502 11.2175L59.7749 11.1894C60.0864 10.835 60.3665 10.5162 60.7145 10.2669C61.5359 9.57216 62.5002 9.2431 63.5716 9.2431C65.0002 9.2431 66.2859 9.8281 67.2502 10.8884C68.1788 11.9488 68.7145 13.3747 68.7145 14.9469C68.7145 16.5557 68.1073 18.0548 66.8216 19.6636C65.6304 21.1342 63.8892 22.6401 61.8678 24.3882L61.7502 24.4899C61.453 24.7485 61.1435 25.0261 60.8216 25.3147C60.3698 25.7199 59.8936 26.1469 59.3931 26.574C59.1788 26.7568 58.8216 26.7568 58.6073 26.574C57.9588 25.9678 57.3103 25.4071 56.7145 24.8921C56.5556 24.7548 56.4005 24.6207 56.2502 24.4899L56.1326 24.3882C54.1112 22.6401 52.37 21.1342 51.1788 19.6636C49.8931 18.0548 49.2859 16.5557 49.2859 14.9469C49.2859 13.3747 49.7859 11.9488 50.7502 10.8884C51.6788 9.8281 53.0002 9.2431 54.4288 9.2431C55.5002 9.2431 56.4645 9.60873 57.2859 10.2669C57.6431 10.5228 57.9645 10.8519 58.2502 11.2175C58.4288 11.4369 58.7145 11.5831 59.0002 11.5831C59.2859 11.5831 59.5716 11.4369 59.7502 11.2175Z" fill="#212B36"/>
<circle cx="72" cy="8" r="8" fill="#3056D3"/>
<path d="M71.5313 12.1094C71.0156 12.1094 70.556 12.0208 70.1523 11.8437C69.7513 11.6667 69.4323 11.4206 69.1953 11.1055C68.9609 10.7878 68.8333 10.4193 68.8125 10H69.7969C69.8177 10.2578 69.9063 10.4805 70.0625 10.668C70.2188 10.8529 70.4232 10.9961 70.6758 11.0977C70.9284 11.1992 71.2083 11.25 71.5156 11.25C71.8594 11.25 72.1641 11.1901 72.4297 11.0703C72.6953 10.9505 72.9036 10.7839 73.0547 10.5703C73.2057 10.3568 73.2813 10.1094 73.2813 9.82812C73.2813 9.53385 73.2083 9.27474 73.0625 9.05078C72.9167 8.82422 72.7031 8.64714 72.4219 8.51953C72.1406 8.39193 71.7969 8.32812 71.3906 8.32812H70.75V7.46875H71.3906C71.7083 7.46875 71.987 7.41146 72.2266 7.29687C72.4688 7.18229 72.6576 7.02083 72.793 6.8125C72.931 6.60417 73 6.35937 73 6.07812C73 5.80729 72.9401 5.57161 72.8203 5.37109C72.7005 5.17057 72.5313 5.01432 72.3125 4.90234C72.0964 4.79036 71.8411 4.73437 71.5469 4.73437C71.2708 4.73437 71.0104 4.78516 70.7656 4.88672C70.5234 4.98568 70.3255 5.13021 70.1719 5.32031C70.0182 5.50781 69.9349 5.73438 69.9219 6H68.9844C69 5.58073 69.1263 5.21354 69.3633 4.89844C69.6003 4.58073 69.9102 4.33333 70.293 4.15625C70.6784 3.97917 71.1016 3.89062 71.5625 3.89062C72.0573 3.89062 72.4818 3.99089 72.8359 4.19141C73.1901 4.38932 73.4622 4.65104 73.6523 4.97656C73.8424 5.30208 73.9375 5.65365 73.9375 6.03125C73.9375 6.48177 73.819 6.86589 73.582 7.18359C73.3477 7.5013 73.0286 7.72135 72.625 7.84375V7.90625C73.1302 7.98958 73.5247 8.20443 73.8086 8.55078C74.0924 8.89453 74.2344 9.32031 74.2344 9.82812C74.2344 10.263 74.1159 10.6536 73.8789 11C73.6445 11.3437 73.3242 11.6146 72.918 11.8125C72.5117 12.0104 72.0495 12.1094 71.5313 12.1094Z" fill="white"/>
<g clip-path="url(#clip0_121_52767)">
<path fill-rule="evenodd" clip-rule="evenodd" d="M4 15.9229C4 11.5472 7.54719 8 11.9229 8C16.2985 8 19.8457 11.5472 19.8457 15.9229C19.8457 20.2985 16.2985 23.8457 11.9229 23.8457C7.54719 23.8457 4 20.2985 4 15.9229ZM11.9229 9.77157C8.5256 9.77157 5.77157 12.5256 5.77157 15.9229C5.77157 19.3201 8.5256 22.0742 11.9229 22.0742C15.3201 22.0742 18.0742 19.3201 18.0742 15.9229C18.0742 12.5256 15.3201 9.77157 11.9229 9.77157Z" fill="#212B36"/>
<path fill-rule="evenodd" clip-rule="evenodd" d="M16.3733 21.511C16.7613 21.213 17.3173 21.286 17.6153 21.674L21.7096 27.0051C22.0076 27.3931 21.9346 27.9492 21.5466 28.2471C21.1586 28.5451 20.6026 28.4721 20.3046 28.0841L16.2103 22.753C15.9123 22.365 15.9853 21.809 16.3733 21.511Z" fill="#212B36"/>
</g>
<circle cx="115" cy="8" r="8" fill="#3056D3"/>
<path d="M115.641 4V12H114.672V5.01562H114.625L112.672 6.3125V5.32812L114.672 4H115.641Z" fill="white"/>
<defs>
<clipPath id="clip0_121_52767">
<rect width="26" height="26" fill="white" transform="translate(0 5)"/>
</clipPath>
</defs>
</svg>
