<svg width="196" height="96" viewBox="0 0 196 96" fill="none" xmlns="http://www.w3.org/2000/svg">
<g clip-path="url(#clip0_140_311)">
<path opacity="0.72" d="M39.9359 44.3521C39.9163 44.1526 39.8239 43.9672 39.6764 43.8315C39.5288 43.6957 39.3364 43.6191 39.1359 43.6161H19.2C18.6586 43.6293 18.1301 43.7839 17.667 44.0646C17.2039 44.3453 16.8222 44.7423 16.56 45.2161C16.3172 45.6398 16.1895 46.1197 16.1895 46.6081C16.1895 47.0965 16.3172 47.5763 16.56 48.0001C16.6293 48.1333 16.7321 48.2462 16.8584 48.3276C16.9847 48.409 17.1299 48.456 17.2799 48.4641H39.184C39.3845 48.4611 39.5769 48.3844 39.7244 48.2487C39.872 48.1129 39.9643 47.9276 39.984 47.7281C39.984 47.1041 39.984 46.5761 39.984 46.1281C39.984 45.6801 39.9839 44.9601 39.9359 44.3521Z" fill="#3056D3"/>
<path d="M39.9203 44.3521C39.9044 44.1539 39.8154 43.9688 39.6705 43.8327C39.5256 43.6967 39.3351 43.6194 39.1363 43.6161H35.9363C35.8241 43.6174 35.7133 43.6422 35.6113 43.6891C35.5093 43.736 35.4184 43.8038 35.3443 43.8881C35.2697 43.9692 35.2138 44.0657 35.1807 44.1707C35.1475 44.2758 35.1379 44.3869 35.1523 44.4961C35.1523 45.0081 35.1523 45.5201 35.1523 46.0961C35.1483 48.6492 34.5013 51.1602 33.2709 53.3973C32.0405 55.6343 30.2663 57.5255 28.1123 58.8961C27.8883 59.0401 27.6804 59.2161 27.4404 59.3441C26.2663 60.0127 25.0067 60.5187 23.6963 60.8481L25.7924 64.5761C25.8635 64.6994 25.9663 64.8014 26.09 64.8717C26.2138 64.942 26.354 64.9781 26.4963 64.9761C26.5809 64.9914 26.6677 64.9914 26.7523 64.9761L27.2643 64.7681L27.7283 64.5761C28.4361 64.2821 29.1254 63.9455 29.7924 63.5681V63.5681C32.9119 61.8108 35.5039 59.2502 37.299 56.1524C39.0942 53.0545 40.0269 49.5324 40.0004 45.9521C40.0004 45.3601 39.9683 44.8961 39.9203 44.3521Z" fill="#3056D3"/>
<path d="M28.5951 59.5387C28.4876 59.3562 28.3167 59.2196 28.115 59.1547H27.891C27.7521 59.1558 27.6153 59.1887 27.491 59.2507C25.2095 60.5489 22.6281 61.2274 20.0031 61.2187C15.9744 61.2103 12.1132 59.6061 9.26445 56.7574C6.41573 53.9087 4.81158 50.0474 4.80313 46.0187C4.81158 41.99 6.41573 38.1288 9.26445 35.28C12.1132 32.4313 15.9744 30.8272 20.0031 30.8187C22.6269 30.8196 25.2059 31.4974 27.491 32.7867C27.6105 32.8625 27.7496 32.9015 27.891 32.8987H28.067C28.1767 32.8745 28.2802 32.8279 28.3711 32.7618C28.4619 32.6958 28.5383 32.6116 28.5951 32.5147L30.1951 29.7307C30.3009 29.5456 30.33 29.3264 30.2762 29.12C30.2223 28.9137 30.0898 28.7366 29.907 28.6267C26.8954 26.9248 23.4944 26.0319 20.0352 26.0347C14.7334 26.0432 9.65124 28.1531 5.90234 31.9019C2.15345 35.6508 0.0436187 40.733 0.0351562 46.0347C0.0436187 51.3365 2.15345 56.4186 5.90234 60.1675C9.65124 63.9164 14.7334 66.0263 20.0352 66.0347C23.4944 66.0376 26.8954 65.1446 29.907 63.4427C29.9986 63.3914 30.0789 63.3221 30.1432 63.2392C30.2074 63.1562 30.2544 63.0611 30.2813 62.9597C30.3081 62.8582 30.3144 62.7524 30.2996 62.6485C30.2848 62.5445 30.2492 62.4447 30.1951 62.3547L28.5951 59.5387Z" fill="#3056D3"/>
<path opacity="0.56" d="M22.2883 48.4H17.2324C17.089 48.3897 16.9501 48.3451 16.8275 48.2699C16.705 48.1947 16.6024 48.0912 16.5283 47.968V47.968L25.8244 64.432C25.8956 64.5552 25.9983 64.6573 26.1221 64.7276C26.2458 64.7979 26.386 64.8339 26.5283 64.832C26.6183 64.8472 26.7104 64.8472 26.8004 64.832C27.8576 64.4513 28.8801 63.9802 29.8564 63.4239C29.948 63.3726 30.0281 63.3033 30.0924 63.2204C30.1567 63.1374 30.2036 63.0423 30.2305 62.9409C30.2573 62.8394 30.2636 62.7336 30.2488 62.6297C30.234 62.5258 30.1985 62.4259 30.1443 62.3359L22.2883 48.4Z" fill="#3056D3"/>
</g>
<path d="M62.5224 39.6567V56.6077H59.5416V39.6567H55V36.855H67.0512V39.6567H62.5224Z" fill="#362122"/>
<path d="M77.2473 44.1471H80.1386V56.6077H77.2473V55.3028C76.0618 56.4115 74.7868 56.9659 73.4222 56.9659C71.6994 56.9659 70.2751 56.3433 69.1493 55.0981C68.032 53.8273 67.4733 52.2409 67.4733 50.339C67.4733 48.4712 68.032 46.9147 69.1493 45.6695C70.2665 44.4243 71.6652 43.8017 73.3454 43.8017C74.7953 43.8017 76.0959 44.3987 77.2473 45.5928V44.1471ZM70.4158 50.339C70.4158 51.533 70.7356 52.5053 71.3753 53.2559C72.032 54.0149 72.8593 54.3945 73.8571 54.3945C74.9232 54.3945 75.7846 54.0277 76.4414 53.2942C77.0981 52.5352 77.4264 51.5714 77.4264 50.403C77.4264 49.2345 77.0981 48.2708 76.4414 47.5117C75.7846 46.7697 74.9318 46.3987 73.8827 46.3987C72.8934 46.3987 72.0661 46.774 71.4009 47.5245C70.7441 48.2836 70.4158 49.2217 70.4158 50.339Z" fill="#362122"/>
<path d="M86.6503 44.1471V56.6077H83.7719V44.1471H86.6503ZM83.3369 38.9659C83.3369 38.4627 83.5203 38.0277 83.887 37.661C84.2537 37.2942 84.693 37.1109 85.2047 37.1109C85.7249 37.1109 86.1684 37.2942 86.5352 37.661C86.9019 38.0192 87.0853 38.4584 87.0853 38.9787C87.0853 39.4989 86.9019 39.9424 86.5352 40.3092C86.177 40.6759 85.7377 40.8593 85.2175 40.8593C84.6972 40.8593 84.2537 40.6759 83.887 40.3092C83.5203 39.9424 83.3369 39.4947 83.3369 38.9659Z" fill="#362122"/>
<path d="M93.1748 35V56.6077H90.2964V35H93.1748Z" fill="#362122"/>
<path d="M107.529 46.322H115.691V46.9744C115.691 48.4584 115.516 49.7719 115.166 50.9147C114.825 51.9723 114.249 52.9616 113.439 53.8827C111.606 55.9467 109.273 56.9787 106.441 56.9787C103.678 56.9787 101.311 55.9808 99.3412 53.9851C97.371 51.9808 96.3859 49.5757 96.3859 46.7697C96.3859 43.9041 97.3881 41.4733 99.3923 39.4776C101.397 37.4733 103.836 36.4712 106.71 36.4712C108.254 36.4712 109.695 36.7868 111.034 37.4179C112.313 38.049 113.571 39.0725 114.808 40.4883L112.684 42.5224C111.064 40.3646 109.09 39.2857 106.761 39.2857C104.672 39.2857 102.919 40.0064 101.503 41.4478C100.087 42.8635 99.3795 44.6375 99.3795 46.7697C99.3795 48.9701 100.168 50.7825 101.746 52.2068C103.222 53.5288 104.821 54.1898 106.544 54.1898C108.011 54.1898 109.328 53.6951 110.497 52.7058C111.665 51.7079 112.318 50.5139 112.454 49.1237H107.529V46.322Z" fill="#362122"/>
<path d="M118.902 44.1471H121.78V45.2601C122.309 44.7058 122.778 44.3262 123.188 44.1215C123.606 43.9083 124.1 43.8017 124.672 43.8017C125.431 43.8017 126.224 44.049 127.051 44.5437L125.733 47.1791C125.188 46.7868 124.655 46.5906 124.134 46.5906C122.565 46.5906 121.78 47.7761 121.78 50.1471V56.6077H118.902V44.1471Z" fill="#362122"/>
<path d="M131.989 44.1471V56.6077H129.111V44.1471H131.989ZM128.676 38.9659C128.676 38.4627 128.859 38.0277 129.226 37.661C129.593 37.2942 130.032 37.1109 130.544 37.1109C131.064 37.1109 131.507 37.2942 131.874 37.661C132.241 38.0192 132.424 38.4584 132.424 38.9787C132.424 39.4989 132.241 39.9424 131.874 40.3092C131.516 40.6759 131.077 40.8593 130.557 40.8593C130.036 40.8593 129.593 40.6759 129.226 40.3092C128.859 39.9424 128.676 39.4947 128.676 38.9659Z" fill="#362122"/>
<path d="M144.821 35H147.712V56.6077H144.821V55.3028C143.687 56.4115 142.403 56.9659 140.97 56.9659C139.264 56.9659 137.849 56.3433 136.723 55.0981C135.606 53.8273 135.047 52.2409 135.047 50.339C135.047 48.4797 135.606 46.9275 136.723 45.6823C137.832 44.4286 139.226 43.8017 140.906 43.8017C142.365 43.8017 143.67 44.3987 144.821 45.5928V35ZM137.989 50.339C137.989 51.533 138.309 52.5053 138.949 53.2559C139.606 54.0149 140.433 54.3945 141.431 54.3945C142.497 54.3945 143.358 54.0277 144.015 53.2942C144.672 52.5352 145 51.5714 145 50.403C145 49.2345 144.672 48.2708 144.015 47.5117C143.358 46.7697 142.505 46.3987 141.456 46.3987C140.467 46.3987 139.64 46.774 138.974 47.5245C138.318 48.2836 137.989 49.2217 137.989 50.339Z" fill="#362122"/>
<path d="M158.586 46.2708L156.207 47.5373C155.832 46.7697 155.367 46.3859 154.812 46.3859C154.548 46.3859 154.322 46.4755 154.134 46.6546C153.947 46.8252 153.853 47.0469 153.853 47.3198C153.853 47.7974 154.407 48.2708 155.516 48.7399C157.043 49.3966 158.07 50.0021 158.599 50.5565C159.128 51.1109 159.392 51.8571 159.392 52.7953C159.392 53.9979 158.949 55.0043 158.062 55.8145C157.2 56.5821 156.16 56.9659 154.94 56.9659C152.851 56.9659 151.371 55.9467 150.501 53.9083L152.957 52.7697C153.299 53.3667 153.559 53.7463 153.738 53.9083C154.087 54.2324 154.505 54.3945 154.991 54.3945C155.964 54.3945 156.45 53.951 156.45 53.064C156.45 52.5522 156.075 52.0746 155.324 51.6311C155.034 51.4861 154.744 51.3454 154.454 51.209C154.164 51.0725 153.87 50.9318 153.571 50.7868C152.736 50.3774 152.147 49.968 151.806 49.5586C151.371 49.0384 151.154 48.3689 151.154 47.5501C151.154 46.467 151.525 45.5714 152.267 44.8635C153.026 44.1557 153.947 43.8017 155.03 43.8017C156.625 43.8017 157.81 44.6247 158.586 46.2708Z" fill="#362122"/>
<defs>
<clipPath id="clip0_140_311">
<rect width="40" height="40" fill="white" transform="translate(0 26)"/>
</clipPath>
</defs>
</svg>
